# xmcd
#
# Track frame offsets:
#	150
#	19257
#	39421
#	55356
#	75455
#	92802
#	114212
#	131369
#	145154
#	161099
#	180322
#	194368
#	209067
#	225920
#	243538
#
# Disc length: 3426 seconds
#
# Revision: 1
# Processed by: cddbd v1.5.2PL0 Copyright (c) Steve Scherf et al.
# Submitted via: audiograbber 1.83.01
#
DISCID=c20d600f
DTITLE=Bonny Tyler - The Very Best Of - Disc 2
DYEAR=1900
DGENRE=
TTITLE0=More Than A Lover
TTITLE1=A Whiter Shade of Pale
TTITLE2=The World Starts Tonight
TTITLE3=Louisiana Rain
TTITLE4=Here Am I
TTITLE5=If I Sing You A Love Song
TTITLE6=Piece Of My Heart
TTITLE7=Heaven
TTITLE8=If You Ever Need Me Again
TTITLE9=I Believe In Your Sweet Love
TTITLE10=My! My! Honeycomb
TTITLE11=Baby I Remember You
TTITLE12=Here's Monday
TTITLE13=Hey Love (It's a Feelin')
TTITLE14=Bye Bye Now My Sweet Love
EXTD=
EXTT0=
EXTT1=
EXTT2=
EXTT3=
EXTT4=
EXTT5=
EXTT6=
EXTT7=
EXTT8=
EXTT9=
EXTT10=
EXTT11=
EXTT12=
EXTT13=
EXTT14=
PLAYORDER=
